<svg version="1.2" xmlns="http://www.w3.org/2000/svg" viewBox="0 0 92 100" width="92" height="100">
	<title>html-svg</title>
	<style>
		.s0 { fill: #f26969 } 
		.s1 { fill: #f1f5f9 } 
		.s2 { fill: #ffffff } 
	</style>
	<path id="Layer" fill-rule="evenodd" class="s0" d="m4 7l7.7 81 34.3 9 34.3-9 7.7-81z"/>
	<path id="Layer" fill-rule="evenodd" class="s1" d="m33.5 58.5h-10.6l1.5 15.7 21.6 5.6v-10.3l-11.8-3zm-2.3-25h14.8v-10h-26.3l0.3 2.7 2.5 27.3h23.5v-9.8h-13.9z"/>
	<path id="Layer" fill-rule="evenodd" class="s2" d="m46 33.5h25.3l0.3-2.3 0.5-5 0.2-2.7h-26.3zm0 20.2h13l-1.3 12.8-11.7 3v10.4l21.5-5.7 0.1-1.7 2.6-26 0.1-2.7h-24.3z"/>
</svg>