<svg version="1.2" xmlns="http://www.w3.org/2000/svg" viewBox="0 0 100 100" width="100" height="100">
	<title>react-svg-svg</title>
	<style>
		.s0 { fill: #ff4237 } 
	</style>
	<path id="Layer" fill-rule="evenodd" class="s0" d="m75 41.8q0 0.1 0 0.2v11.1c0 0.3-0.2 0.6-0.4 0.7l-9.3 5.4v10.7c0 0.3-0.1 0.6-0.4 0.7l-19.3 11.3q-0.1 0-0.2 0.1 0 0 0 0-0.1 0-0.1 0-0.1 0-0.1 0-0.1 0-0.1 0-0.1 0-0.1 0-0.1 0-0.1-0.1-0.1 0-0.1 0l-19.4-11.3q-0.1 0-0.2-0.1 0-0.1-0.1-0.2 0-0.1-0.1-0.2 0-0.1 0-0.2v-33.5q0 0 0 0 0 0 0-0.1 0 0 0 0 0 0 0-0.1 0 0 0.1 0 0-0.1 0-0.2 0 0 0.1 0 0-0.1 0-0.1 0.1-0.1 0.1-0.1 0.1 0 0.1-0.1l9.7-5.6q0.1 0 0.2-0.1 0.1 0 0.2 0 0.1 0 0.2 0 0.1 0.1 0.2 0.1l9.7 5.6q0 0.1 0.1 0.1v0.1q0.1 0 0.1 0.1 0 0 0.1 0 0 0.1 0 0.2 0.1 0.1 0.1 0.2v21l8-4.7v-10.7q0-0.1 0.1-0.2v-0.1q0-0.1 0-0.1 0.1-0.1 0.1-0.1 0-0.1 0.1-0.1 0 0 0-0.1 0.1 0 0.1 0l9.7-5.7q0.1 0 0.2 0 0.1-0.1 0.2-0.1 0.1 0 0.2 0.1 0.1 0 0.2 0l9.7 5.7q0 0 0.1 0l0.1 0.1q0 0 0 0.1 0.1 0 0.1 0.1 0 0 0 0.1zm-1.5 10.9v-9.3l-3.4 2-4.7 2.7v9.3c0 0 8.1-4.7 8.1-4.7zm-9.7 16.8v-9.3l-4.6 2.7-13.2 7.5v9.4c0 0 17.8-10.3 17.8-10.3zm-37.1-31.6v31.6l17.7 10.3v-9.4l-9.2-5.3q-0.1 0-0.1 0-0.1-0.1-0.1-0.1 0 0-0.1-0.1 0 0 0-0.1-0.1 0-0.1-0.1 0 0 0-0.1 0 0 0-0.1 0 0-0.1-0.1v-21.8l-4.6-2.7c0 0-3.4-2-3.4-2zm8.9-6.1l-8.1 4.7 8.1 4.7 8-4.7zm4.2 29.2l4.7-2.7v-20.4l-3.4 1.9-4.7 2.8v20.4c0 0 3.4-2 3.4-2zm24.9-23.7q-0.1 0 0 0zm-8.1 4.7l8 4.7 8.1-4.7c0 0-8.1-4.7-8.1-4.7zm7.3 6.1l-4.7-2.7-3.4-2v9.3l4.7 2.7 3.4 2zm-18.5 20.9l11.8-6.8 5.9-3.4-8.1-4.7-9.2 5.4-8.5 4.9z"/>
</svg>